<svg xmlns="http://www.w3.org/2000/svg" style="shape-rendering:geometricPrecision; text-rendering:geometricPrecision; image-rendering:optimizeQuality; fill-rule:evenodd; clip-rule:evenodd" viewBox="0 0 21000 29700">
 <defs>
  <style type="text/css">
   <![CDATA[
    .str1 {stroke:#F03E08;stroke-width:300;stroke-linecap:round;stroke-linejoin:round}
    .str2 {stroke:white;stroke-width:20;stroke-linecap:round;stroke-linejoin:round}
    .fil2 {fill:#FEF7BC}
    .fil5 {fill:black}
    .fil15 {fill:#0A820B}
    .fil3 {fill:#F03E08}
    .fil7 {fill:red}
    .fil4 {fill:yellow}
   ]]>
  </style>
 </defs>
 <g>
  <path class="fil2" d="M-5295 10617c0,0 3429,-5461 7197,-6942 3768,-1482 -1736,5461 -2201,7069 1270,-730 7910,-9978 10414,-10160 5842,-423 -10793,18526 -4281,13576 2964,-2253 9276,-12306 12197,-9893 2921,2413 -1200,5316 -1078,6989 198,2693 -2308,3643 -2847,6690 -396,2240 5830,-6440 7354,-5508 1524,931 -1706,6559 -1325,7405 381,847 1071,-1098 2002,-1055 932,42 -169,4656 -169,4656 0,0 0,-2116 -423,-2243 -424,-127 -1413,3183 -2921,2730 -1508,-452 1271,-5847 445,-6086 -827,-239 -10560,13415 -12719,11594 -1355,-1143 1813,-6747 1359,-7578 -87,-158 -548,478 -537,-189 10,-667 1948,-3572 1800,-4916 -105,-954 -2709,3450 -6677,5962 -4148,2626 -7432,3315 -4156,-2501 2847,-5055 8345,-12921 7363,-12748 -1439,254 -8195,9287 -10343,9552 -2147,264 3970,-8986 4139,-10171 170,-1186 -4593,3767 -4593,3767z"/>
  <g>
   <path class="fil3 str1" d="M15613 7567c-854,-843 -1780,-1786 -1910,-215 -21,264 -14,473 -36,777 -79,-659 -117,-856 -226,-1100 -485,-1089 -782,-74 -1315,903 -253,463 -1042,2209 -1330,2784 209,-650 411,-1369 534,-1834 238,-892 372,-1509 352,-2203 -20,-654 -479,-372 -850,-275 216,-284 563,-798 180,-799 -428,0 -589,9 -905,14 223,-67 295,-71 556,-221 743,-426 -2111,-222 -2272,-218 146,-36 1791,-416 2164,-765 317,-297 -62,-892 -282,-1193 -525,-721 -1749,-1796 -2114,-2175 1132,781 2728,1848 2958,1990 169,105 1206,558 405,-631 -353,-523 -470,-674 -631,-919 125,89 504,497 1071,824 453,260 680,-444 672,-1060 -7,-510 -26,-739 -52,-1407 93,365 533,3006 994,2290 127,-198 224,-483 342,-745 -30,273 -150,1024 263,1004 293,-15 1601,-1183 1945,-1438 -453,539 -1639,2111 -999,2739 120,119 400,218 1023,254 -736,117 -996,424 -567,666 209,118 1700,562 2264,722 -763,-68 -921,-139 -1665,-95 -654,40 -1356,404 -1149,1243 52,209 378,744 580,1083z"/>
   <path class="fil4 str2" d="M15026 6908c-692,-684 -1297,-1347 -1401,-74 -18,213 74,759 57,1006 -64,-535 -236,-945 -324,-1143 -393,-882 -700,-453 -1132,339 -205,375 -778,2182 -1011,2649 169,-527 332,-1109 433,-1487 192,-722 210,-1015 194,-1577 -16,-530 -298,-509 -598,-430 175,-231 456,-647 146,-647 -347,-1 -694,64 -950,68 180,-55 455,-115 667,-236 602,-346 -1334,-402 -1465,-399 119,-29 1075,-116 1377,-398 257,-241 -50,-723 -228,-967 -425,-584 -1417,-1455 -1713,-1762 917,633 2211,1497 2397,1613 136,84 709,622 474,-516 -60,-290 -138,-421 -269,-619 102,72 154,122 505,220 407,113 425,-88 465,-445 49,-444 -17,-1014 -38,-1555 76,295 482,2763 855,2183 103,-161 182,-392 277,-604 -24,221 -121,830 214,813 237,-11 1246,-1100 1526,-1307 -368,437 -1276,1709 -760,2220 190,188 442,118 946,147 -596,95 -749,528 -400,724 168,95 1635,432 2092,561 -618,-54 -1213,-173 -1817,-137 -530,32 -989,168 -822,848 42,170 140,637 303,912z"/>
  </g>
 </g>
 <g>
  <path class="fil15" d="M8479 11040c-173,-226 -757,-587 -1164,-718 -348,-112 -1398,-368 -2509,-398 -790,-21 -1902,63 -2808,448 -1334,568 -2448,1632 -3357,3320 -77,143 -125,234 -196,380 -842,1746 -817,3789 -736,4680 62,673 218,1412 369,2071 128,557 383,1251 605,1753 1155,2608 3170,4681 6028,5691 1546,546 3362,703 5164,450 314,-44 1573,-298 1910,-444 134,-58 258,-113 406,-166 1051,-381 1748,-814 2676,-1434 245,-164 461,-350 685,-507 339,-237 889,-785 1211,-1130 330,-354 1027,-1195 1287,-1636 78,-133 142,-240 219,-360 127,-198 316,-511 416,-740 122,-282 257,-498 360,-795 374,-1067 582,-1533 731,-2808 148,-1269 -257,-2732 -764,-3862 -266,-590 -407,-987 -789,-1557 -917,-1368 -1516,-1753 -3034,-2100 -949,-114 -1697,-214 -2549,-129 -2011,202 -2445,542 -2838,655 -415,120 -423,-690 -456,-1175 -18,-259 66,-1069 234,-1444 274,-610 733,-1182 1411,-1626 549,-346 1186,-328 851,-838 -707,-1076 -590,-1192 -1750,-162 -1077,923 -1466,1892 -1610,2634 -144,742 -79,1498 -3,1947zm-9928 7238c4,2744 755,4912 2267,6780 262,324 588,621 889,909 813,777 2240,1570 3409,1951l683 224c118,48 119,75 324,114 148,28 240,47 376,77 1592,351 3211,268 4764,-130 106,-27 284,-48 369,-83 529,-222 1091,-370 1587,-655 353,-202 755,-383 1162,-637 197,-122 358,-226 541,-358 344,-246 674,-488 983,-781 286,-272 622,-635 867,-933 1673,-2038 3101,-5053 2554,-7932 -178,-938 -593,-1745 -1068,-2494 -789,-1242 -1445,-2080 -2927,-2381 -513,-105 -1501,-256 -2351,-155 -1312,143 -1662,326 -1915,423 -837,320 -1007,448 -2392,626 -258,33 -1998,100 -2171,-500 -36,-123 271,101 632,138 320,32 1385,-39 1360,-250 -43,-363 -1028,-948 -1570,-1161 -576,-227 -1630,-266 -2314,-265 -776,1 -2240,421 -2859,788 -1149,680 -2567,2268 -2852,3640 -260,1251 -353,1671 -348,3045z"/>
 </g>
 <g>
  <path class="fil7" d="M3475 21045c316,111 520,244 613,399 94,156 141,308 141,458 0,322 -206,653 -620,992 -412,341 -846,511 -1300,511 -253,0 -379,-77 -379,-231 0,-253 176,-379 529,-379l124 0c165,0 373,-96 624,-287 251,-192 377,-386 377,-583 0,-120 -52,-227 -154,-320 -103,-93 -240,-141 -412,-141 -14,0 -80,27 -200,79 -122,52 -211,78 -269,78 -158,0 -261,-19 -309,-58 -48,-39 -72,-117 -72,-235 0,-82 171,-194 516,-334 195,-77 391,-210 586,-398 196,-189 293,-347 293,-477 0,-167 -120,-250 -364,-250 -227,0 -450,25 -670,76 -219,50 -340,113 -364,186 -23,74 -85,461 -187,1159 -101,698 -151,1101 -151,1209l-26 341c-13,172 -53,283 -119,332 -66,50 -140,76 -225,76 -226,0 -339,-146 -339,-438 0,-46 15,-127 43,-245 74,-306 147,-731 217,-1275 70,-545 104,-838 104,-880 0,-85 -16,-127 -50,-127l-69 5c-50,5 -95,-10 -134,-46 -39,-37 -64,-71 -76,-103 -11,-32 -17,-61 -17,-88 0,-168 234,-326 703,-476 468,-150 961,-225 1477,-225 275,0 498,73 669,219 171,146 256,314 256,507 0,138 -54,279 -164,421 -110,143 -310,325 -602,548zm2361 2230c-285,0 -538,-137 -759,-411 -221,-273 -332,-557 -332,-848 0,-344 106,-731 316,-1159 211,-428 483,-778 816,-1049 333,-272 681,-407 1043,-407 282,0 514,34 697,101 182,67 352,166 505,297 155,131 258,266 309,405 51,139 77,329 77,573 0,214 -68,474 -205,779 -138,307 -338,595 -600,867 -263,271 -529,481 -800,629 -272,149 -628,223 -1067,223zm-451 -1282c0,207 61,380 185,518 123,139 265,208 424,208 453,0 877,-217 1273,-652 396,-434 594,-894 594,-1382 0,-171 -33,-310 -99,-416 -65,-105 -178,-192 -335,-262 -158,-71 -327,-105 -507,-105 -326,0 -662,234 -1011,705 -350,470 -524,932 -524,1386zm4604 1282c-285,0 -538,-137 -759,-411 -221,-273 -332,-557 -332,-848 0,-344 106,-731 316,-1159 211,-428 483,-778 816,-1049 333,-272 681,-407 1043,-407 282,0 514,34 697,101 183,67 352,166 505,297 155,131 258,266 309,405 51,139 77,329 77,573 0,214 -68,474 -205,779 -138,307 -338,595 -600,867 -263,271 -529,481 -800,629 -272,149 -628,223 -1067,223zm-451 -1282c0,207 61,380 185,518 123,139 265,208 424,208 453,0 877,-217 1273,-652 396,-434 594,-894 594,-1382 0,-171 -33,-310 -99,-416 -65,-105 -177,-192 -335,-262 -158,-71 -327,-105 -507,-105 -326,0 -662,234 -1011,705 -350,470 -524,932 -524,1386zm7180 -1677l-842 1139c-389,544 -689,816 -900,816 -98,0 -184,-56 -260,-168 -76,-112 -154,-282 -233,-512 -80,-230 -135,-403 -167,-521 -72,-273 -122,-429 -147,-466l-129 658c-40,212 -81,407 -124,585 -42,178 -88,392 -138,642 -49,249 -80,437 -92,563 -4,43 -43,88 -120,138 -77,48 -136,72 -175,73 -81,-1 -157,-38 -227,-113 -70,-75 -105,-147 -105,-216 0,-162 34,-368 101,-617 278,-1022 437,-1665 477,-1930 39,-264 59,-485 59,-660 0,-91 40,-161 119,-210 80,-49 183,-73 311,-73 69,0 138,45 207,136 69,91 115,176 138,253l-3 -5 351 984c140,393 233,643 281,749 182,-198 451,-541 809,-1030 358,-487 602,-800 734,-940 131,-141 224,-211 277,-211 83,0 175,35 277,105 101,69 151,127 151,177 0,37 -33,290 -99,760 -45,332 -86,705 -123,1115 -37,412 -56,655 -56,729 0,92 12,185 35,281 17,74 26,144 26,210 0,167 -29,281 -88,341 -58,61 -148,92 -269,92 -220,0 -331,-167 -331,-499 0,-314 29,-697 86,-1149 57,-453 109,-800 157,-1044 16,-87 27,-148 32,-182z"/>
  <path class="fil15" d="M2421 15449l-694 36c-242,14 -450,34 -625,64 -174,30 -268,52 -282,67 -15,16 -25,63 -31,140 -8,74 -34,207 -81,396 -37,144 -60,262 -67,354 96,0 234,-10 414,-30 180,-19 308,-38 384,-56 216,-52 384,-79 502,-79 238,0 356,71 356,212 0,104 -33,176 -99,216 -66,39 -170,67 -311,81 -88,10 -185,24 -293,41 -57,9 -128,19 -214,27 -416,49 -662,86 -737,113l-2 0c-26,8 -45,25 -58,52 -13,27 -35,138 -69,334 -33,197 -50,334 -50,412 8,56 43,83 104,83 73,0 262,-20 570,-59 307,-40 498,-68 571,-82 206,-44 341,-66 404,-66 190,27 286,116 286,266 0,69 -23,122 -68,158 -150,67 -358,109 -625,126 -205,12 -454,37 -748,77 -261,56 -507,83 -739,83 -122,0 -210,-26 -264,-77 -54,-53 -86,-133 -97,-243l-7 -74c-1,-13 12,-58 39,-138 60,-185 134,-596 221,-1233 86,-637 130,-991 130,-1064 0,-1 -4,-7 -13,-18 -11,-9 -28,-38 -53,-86 -25,-50 -38,-100 -38,-150 0,-27 4,-50 10,-66 6,-31 38,-63 97,-94 58,-32 113,-48 164,-48 71,0 142,4 214,14 125,0 531,-46 1217,-136 229,-30 348,-45 359,-45l32 -2c270,-20 405,67 405,261 0,36 -24,81 -73,135 -49,53 -95,86 -141,98zm1186 2919c-248,0 -436,-68 -566,-203 -129,-135 -194,-323 -194,-564 0,-378 154,-788 463,-1228 308,-441 610,-661 905,-661 144,0 265,71 366,214 101,141 151,289 151,442 0,145 -26,242 -80,292 -53,50 -105,76 -154,76 -146,0 -231,-101 -255,-303 -18,-147 -55,-220 -111,-220 -117,0 -272,167 -464,500 -193,334 -289,626 -289,877 0,203 110,305 329,305 243,0 487,-86 733,-257 116,-84 208,-124 275,-124 83,0 124,40 124,124 0,115 -132,266 -398,451 -265,186 -544,279 -835,279zm3796 -1267c-101,352 -292,648 -574,889 -281,242 -563,362 -844,362 -222,0 -406,-81 -550,-244 -145,-163 -216,-363 -216,-601 0,-388 132,-770 396,-1145 265,-376 586,-564 963,-564 257,0 465,95 624,285 160,190 239,417 239,680 0,114 -12,226 -38,336l0 2zm-1172 -712c-106,93 -208,241 -309,446 -101,205 -151,409 -151,616 0,124 23,227 69,308 45,82 106,122 181,122 187,0 380,-110 582,-331 201,-221 302,-470 302,-744 0,-155 -33,-283 -98,-383 -66,-100 -157,-150 -274,-150 -112,0 -212,39 -300,116l-2 0z"/>
  <path class="fil15" d="M7585 16136c0,0 -50,97 -114,168 75,11 758,99 1295,-290 0,0 -512,259 -981,229 0,0 103,-399 425,-407 321,-8 675,97 916,-103 0,0 -465,1190 -1329,635 0,0 -222,17 -362,-20l13 -20c-6,6 -12,12 -19,17l-23 -45c0,0 381,-368 384,-865 0,0 -66,400 -280,655 0,0 -163,-213 -53,-413 102,-187 339,-345 326,-566 0,0 482,766 -198,1025z"/>
 </g>
</svg>
